<mxfile host="app.diagrams.net" agent="Mozilla/5.0 (Windows NT 10.0; Win64; x64) AppleWebKit/537.36 (KHTML, like Gecko) Chrome/141.0.0.0 Safari/537.36 Edg/141.0.0.0" version="28.2.7">
  <diagram name="第 1 页" id="-mTZYD3nG9YFjDIMZA3M">
    <mxGraphModel dx="1418" dy="794" grid="1" gridSize="10" guides="1" tooltips="1" connect="1" arrows="1" fold="1" page="1" pageScale="1" pageWidth="827" pageHeight="1169" math="0" shadow="0">
      <root>
        <mxCell id="0" />
        <mxCell id="1" parent="0" />
        <mxCell id="Hkny2rUPo95XRUR2i1Lj-1" value="" style="rounded=0;whiteSpace=wrap;html=1;" vertex="1" parent="1">
          <mxGeometry x="270" y="70" width="1150" height="800" as="geometry" />
        </mxCell>
        <mxCell id="liFUDDSbj1OE5qmoX0ny-108" value="" style="rounded=0;whiteSpace=wrap;html=1;" parent="1" vertex="1">
          <mxGeometry x="320" y="190" width="1070" height="650" as="geometry" />
        </mxCell>
        <mxCell id="liFUDDSbj1OE5qmoX0ny-1" value="" style="rounded=0;whiteSpace=wrap;html=1;" parent="1" vertex="1">
          <mxGeometry x="320" y="86" width="1070" height="70" as="geometry" />
        </mxCell>
        <mxCell id="liFUDDSbj1OE5qmoX0ny-2" value="MQTT Broker" style="shape=cylinder3;whiteSpace=wrap;html=1;boundedLbl=1;backgroundOutline=1;size=15;fillColor=#d5e8d4;strokeColor=#82b366;" parent="1" vertex="1">
          <mxGeometry x="790" y="92.25" width="100" height="57.5" as="geometry" />
        </mxCell>
        <mxCell id="liFUDDSbj1OE5qmoX0ny-4" value="外部系统/平台" style="text;html=1;whiteSpace=wrap;strokeColor=none;fillColor=none;align=center;verticalAlign=middle;rounded=0;" parent="1" vertex="1">
          <mxGeometry x="330" y="92.25" width="80" height="30" as="geometry" />
        </mxCell>
        <mxCell id="liFUDDSbj1OE5qmoX0ny-112" style="edgeStyle=orthogonalEdgeStyle;curved=1;rounded=0;orthogonalLoop=1;jettySize=auto;html=1;exitX=0.5;exitY=1;exitDx=0;exitDy=0;" parent="1" source="liFUDDSbj1OE5qmoX0ny-14" target="liFUDDSbj1OE5qmoX0ny-40" edge="1">
          <mxGeometry relative="1" as="geometry" />
        </mxCell>
        <mxCell id="liFUDDSbj1OE5qmoX0ny-14" value="&lt;b&gt;mqtt_listener&lt;/b&gt;" style="ellipse;whiteSpace=wrap;html=1;strokeWidth=2;" parent="1" vertex="1">
          <mxGeometry x="410" y="228" width="330" height="52" as="geometry" />
        </mxCell>
        <mxCell id="liFUDDSbj1OE5qmoX0ny-95" style="edgeStyle=orthogonalEdgeStyle;curved=1;rounded=0;orthogonalLoop=1;jettySize=auto;html=1;exitX=1;exitY=0.5;exitDx=0;exitDy=0;entryX=0;entryY=0.5;entryDx=0;entryDy=0;" parent="1" source="liFUDDSbj1OE5qmoX0ny-15" target="liFUDDSbj1OE5qmoX0ny-63" edge="1">
          <mxGeometry relative="1" as="geometry" />
        </mxCell>
        <mxCell id="liFUDDSbj1OE5qmoX0ny-15" value="&lt;b&gt;traffic_event_monitor&lt;/b&gt;" style="ellipse;whiteSpace=wrap;html=1;strokeWidth=2;" parent="1" vertex="1">
          <mxGeometry x="1013" y="658" width="120" height="50" as="geometry" />
        </mxCell>
        <mxCell id="liFUDDSbj1OE5qmoX0ny-94" style="edgeStyle=orthogonalEdgeStyle;curved=1;rounded=0;orthogonalLoop=1;jettySize=auto;html=1;exitX=1;exitY=0.5;exitDx=0;exitDy=0;" parent="1" source="liFUDDSbj1OE5qmoX0ny-16" target="liFUDDSbj1OE5qmoX0ny-54" edge="1">
          <mxGeometry relative="1" as="geometry" />
        </mxCell>
        <mxCell id="liFUDDSbj1OE5qmoX0ny-16" value="&lt;b&gt;traffic_statistics&lt;/b&gt;" style="ellipse;whiteSpace=wrap;html=1;strokeWidth=2;" parent="1" vertex="1">
          <mxGeometry x="1013" y="540" width="120" height="50" as="geometry" />
        </mxCell>
        <mxCell id="liFUDDSbj1OE5qmoX0ny-17" value="&lt;b&gt;mqtt_publisher&lt;/b&gt;" style="ellipse;whiteSpace=wrap;html=1;strokeWidth=2;" parent="1" vertex="1">
          <mxGeometry x="871" y="227" width="370" height="52" as="geometry" />
        </mxCell>
        <mxCell id="liFUDDSbj1OE5qmoX0ny-18" value="&lt;b&gt;radar_video_fusion&lt;/b&gt;" style="ellipse;whiteSpace=wrap;html=1;strokeWidth=2;" parent="1" vertex="1">
          <mxGeometry x="676" y="545" width="120" height="50" as="geometry" />
        </mxCell>
        <mxCell id="liFUDDSbj1OE5qmoX0ny-92" style="edgeStyle=orthogonalEdgeStyle;curved=1;rounded=0;orthogonalLoop=1;jettySize=auto;html=1;exitX=1;exitY=0.5;exitDx=0;exitDy=0;entryX=0;entryY=0.5;entryDx=0;entryDy=0;" parent="1" source="liFUDDSbj1OE5qmoX0ny-19" target="liFUDDSbj1OE5qmoX0ny-47" edge="1">
          <mxGeometry relative="1" as="geometry" />
        </mxCell>
        <mxCell id="liFUDDSbj1OE5qmoX0ny-19" value="&lt;b&gt;virtual_coil&lt;/b&gt;" style="ellipse;whiteSpace=wrap;html=1;strokeWidth=2;" parent="1" vertex="1">
          <mxGeometry x="1013" y="431" width="120" height="50" as="geometry" />
        </mxCell>
        <mxCell id="liFUDDSbj1OE5qmoX0ny-20" value="&lt;b&gt;tcp_comm&lt;/b&gt;" style="ellipse;whiteSpace=wrap;html=1;strokeWidth=2;" parent="1" vertex="1">
          <mxGeometry x="339" y="545" width="120" height="50" as="geometry" />
        </mxCell>
        <mxCell id="liFUDDSbj1OE5qmoX0ny-41" value="" style="group" parent="1" vertex="1" connectable="0">
          <mxGeometry x="420" y="330" width="310" height="70" as="geometry" />
        </mxCell>
        <mxCell id="liFUDDSbj1OE5qmoX0ny-40" value="" style="rounded=0;whiteSpace=wrap;html=1;" parent="liFUDDSbj1OE5qmoX0ny-41" vertex="1">
          <mxGeometry width="310" height="70" as="geometry" />
        </mxCell>
        <mxCell id="liFUDDSbj1OE5qmoX0ny-36" value="服务" style="text;html=1;whiteSpace=wrap;strokeColor=none;fillColor=none;align=center;verticalAlign=middle;rounded=0;" parent="liFUDDSbj1OE5qmoX0ny-41" vertex="1">
          <mxGeometry width="60" height="30" as="geometry" />
        </mxCell>
        <mxCell id="liFUDDSbj1OE5qmoX0ny-37" value="/device_config" style="rounded=0;whiteSpace=wrap;html=1;fillColor=#ffe6cc;strokeColor=#d79b00;" parent="liFUDDSbj1OE5qmoX0ny-41" vertex="1">
          <mxGeometry x="7.5" y="30" width="92.5" height="30" as="geometry" />
        </mxCell>
        <mxCell id="liFUDDSbj1OE5qmoX0ny-38" value="/lane_config" style="rounded=0;whiteSpace=wrap;html=1;fillColor=#dae8fc;strokeColor=#6c8ebf;" parent="liFUDDSbj1OE5qmoX0ny-41" vertex="1">
          <mxGeometry x="109" y="30" width="92.5" height="30" as="geometry" />
        </mxCell>
        <mxCell id="liFUDDSbj1OE5qmoX0ny-39" value="/coil_config" style="rounded=0;whiteSpace=wrap;html=1;fillColor=#d5e8d4;strokeColor=#82b366;" parent="liFUDDSbj1OE5qmoX0ny-41" vertex="1">
          <mxGeometry x="210" y="30" width="92.5" height="30" as="geometry" />
        </mxCell>
        <mxCell id="liFUDDSbj1OE5qmoX0ny-43" value="" style="group" parent="1" vertex="1" connectable="0">
          <mxGeometry x="829" y="460" width="150" height="220" as="geometry" />
        </mxCell>
        <mxCell id="liFUDDSbj1OE5qmoX0ny-27" value="" style="rounded=0;whiteSpace=wrap;html=1;" parent="liFUDDSbj1OE5qmoX0ny-43" vertex="1">
          <mxGeometry width="150" height="210" as="geometry" />
        </mxCell>
        <mxCell id="liFUDDSbj1OE5qmoX0ny-28" value="/ktkd_1_1/fusion_tracks" style="rounded=0;whiteSpace=wrap;html=1;fillColor=#ffe6cc;strokeColor=#d79b00;" parent="liFUDDSbj1OE5qmoX0ny-43" vertex="1">
          <mxGeometry x="7.5" y="41" width="135" height="30" as="geometry" />
        </mxCell>
        <mxCell id="liFUDDSbj1OE5qmoX0ny-29" value="/ktkd_1_1/video_tracks" style="rounded=0;whiteSpace=wrap;html=1;fillColor=#ffe6cc;strokeColor=#d79b00;" parent="liFUDDSbj1OE5qmoX0ny-43" vertex="1">
          <mxGeometry x="7.5" y="71" width="135" height="30" as="geometry" />
        </mxCell>
        <mxCell id="liFUDDSbj1OE5qmoX0ny-30" value="/ktkd_1_7/fusion_tracks" style="rounded=0;whiteSpace=wrap;html=1;fillColor=#dae8fc;strokeColor=#6c8ebf;" parent="liFUDDSbj1OE5qmoX0ny-43" vertex="1">
          <mxGeometry x="7.5" y="134" width="135" height="30" as="geometry" />
        </mxCell>
        <mxCell id="liFUDDSbj1OE5qmoX0ny-31" value="/ktkd_1_7/video_tracks" style="rounded=0;whiteSpace=wrap;html=1;fillColor=#dae8fc;strokeColor=#6c8ebf;" parent="liFUDDSbj1OE5qmoX0ny-43" vertex="1">
          <mxGeometry x="7.5" y="164" width="135" height="30" as="geometry" />
        </mxCell>
        <mxCell id="liFUDDSbj1OE5qmoX0ny-32" value="话题" style="text;html=1;whiteSpace=wrap;strokeColor=none;fillColor=none;align=center;verticalAlign=middle;rounded=0;" parent="liFUDDSbj1OE5qmoX0ny-43" vertex="1">
          <mxGeometry width="60" height="30" as="geometry" />
        </mxCell>
        <mxCell id="liFUDDSbj1OE5qmoX0ny-44" value="" style="group" parent="1" vertex="1" connectable="0">
          <mxGeometry x="492" y="460" width="150" height="220" as="geometry" />
        </mxCell>
        <mxCell id="liFUDDSbj1OE5qmoX0ny-21" value="" style="rounded=0;whiteSpace=wrap;html=1;" parent="liFUDDSbj1OE5qmoX0ny-44" vertex="1">
          <mxGeometry width="150" height="210" as="geometry" />
        </mxCell>
        <mxCell id="liFUDDSbj1OE5qmoX0ny-22" value="/ktkd_1_1/radar_data" style="rounded=0;whiteSpace=wrap;html=1;fillColor=#ffe6cc;strokeColor=#d79b00;" parent="liFUDDSbj1OE5qmoX0ny-44" vertex="1">
          <mxGeometry x="7.5" y="41" width="135" height="30" as="geometry" />
        </mxCell>
        <mxCell id="liFUDDSbj1OE5qmoX0ny-23" value="/ktkd_1_1/video_data" style="rounded=0;whiteSpace=wrap;html=1;fillColor=#ffe6cc;strokeColor=#d79b00;" parent="liFUDDSbj1OE5qmoX0ny-44" vertex="1">
          <mxGeometry x="7.5" y="71" width="135" height="30" as="geometry" />
        </mxCell>
        <mxCell id="liFUDDSbj1OE5qmoX0ny-24" value="/ktkd_1_7/video_data" style="rounded=0;whiteSpace=wrap;html=1;fillColor=#dae8fc;strokeColor=#6c8ebf;" parent="liFUDDSbj1OE5qmoX0ny-44" vertex="1">
          <mxGeometry x="7.5" y="131" width="135" height="30" as="geometry" />
        </mxCell>
        <mxCell id="liFUDDSbj1OE5qmoX0ny-25" value="/ktkd_1_7/video_data" style="rounded=0;whiteSpace=wrap;html=1;fillColor=#dae8fc;strokeColor=#6c8ebf;" parent="liFUDDSbj1OE5qmoX0ny-44" vertex="1">
          <mxGeometry x="7.5" y="161" width="135" height="30" as="geometry" />
        </mxCell>
        <mxCell id="liFUDDSbj1OE5qmoX0ny-26" value="话题" style="text;html=1;whiteSpace=wrap;strokeColor=none;fillColor=none;align=center;verticalAlign=middle;rounded=0;" parent="liFUDDSbj1OE5qmoX0ny-44" vertex="1">
          <mxGeometry width="60" height="30" as="geometry" />
        </mxCell>
        <mxCell id="liFUDDSbj1OE5qmoX0ny-67" value="" style="group" parent="1" vertex="1" connectable="0">
          <mxGeometry x="1166" y="440" width="200" height="250" as="geometry" />
        </mxCell>
        <mxCell id="liFUDDSbj1OE5qmoX0ny-54" value="" style="rounded=0;whiteSpace=wrap;html=1;" parent="liFUDDSbj1OE5qmoX0ny-67" vertex="1">
          <mxGeometry width="200" height="250" as="geometry" />
        </mxCell>
        <mxCell id="liFUDDSbj1OE5qmoX0ny-55" value="/ktkd_1_1/minute_traffic_metrics" style="rounded=0;whiteSpace=wrap;html=1;fillColor=#ffe6cc;strokeColor=#d79b00;" parent="liFUDDSbj1OE5qmoX0ny-67" vertex="1">
          <mxGeometry x="7.5" y="41" width="182.5" height="30" as="geometry" />
        </mxCell>
        <mxCell id="liFUDDSbj1OE5qmoX0ny-57" value="话题" style="text;html=1;whiteSpace=wrap;strokeColor=none;fillColor=none;align=center;verticalAlign=middle;rounded=0;" parent="liFUDDSbj1OE5qmoX0ny-67" vertex="1">
          <mxGeometry width="60" height="30" as="geometry" />
        </mxCell>
        <mxCell id="liFUDDSbj1OE5qmoX0ny-58" value="/ktkd_1_1/second_traffic_metrics" style="rounded=0;whiteSpace=wrap;html=1;fillColor=#ffe6cc;strokeColor=#d79b00;" parent="liFUDDSbj1OE5qmoX0ny-67" vertex="1">
          <mxGeometry x="7.5" y="71" width="182.5" height="30" as="geometry" />
        </mxCell>
        <mxCell id="liFUDDSbj1OE5qmoX0ny-59" value="/ktkd_1_1/phase_traffic_metrics" style="rounded=0;whiteSpace=wrap;html=1;fillColor=#ffe6cc;strokeColor=#d79b00;" parent="liFUDDSbj1OE5qmoX0ny-67" vertex="1">
          <mxGeometry x="7.5" y="101" width="182.5" height="30" as="geometry" />
        </mxCell>
        <mxCell id="liFUDDSbj1OE5qmoX0ny-60" value="/ktkd_1_1/minute_traffic_metrics" style="rounded=0;whiteSpace=wrap;html=1;fillColor=#dae8fc;strokeColor=#6c8ebf;" parent="liFUDDSbj1OE5qmoX0ny-67" vertex="1">
          <mxGeometry x="7.5" y="150" width="182.5" height="30" as="geometry" />
        </mxCell>
        <mxCell id="liFUDDSbj1OE5qmoX0ny-61" value="/ktkd_1_1/second_traffic_metrics" style="rounded=0;whiteSpace=wrap;html=1;fillColor=#dae8fc;strokeColor=#6c8ebf;" parent="liFUDDSbj1OE5qmoX0ny-67" vertex="1">
          <mxGeometry x="7.5" y="180" width="182.5" height="30" as="geometry" />
        </mxCell>
        <mxCell id="liFUDDSbj1OE5qmoX0ny-62" value="/ktkd_1_1/phase_traffic_metrics" style="rounded=0;whiteSpace=wrap;html=1;fillColor=#dae8fc;strokeColor=#6c8ebf;" parent="liFUDDSbj1OE5qmoX0ny-67" vertex="1">
          <mxGeometry x="7.5" y="210" width="182.5" height="30" as="geometry" />
        </mxCell>
        <mxCell id="liFUDDSbj1OE5qmoX0ny-68" value="" style="group" parent="1" vertex="1" connectable="0">
          <mxGeometry x="1191" y="710" width="150" height="120" as="geometry" />
        </mxCell>
        <mxCell id="liFUDDSbj1OE5qmoX0ny-63" value="" style="rounded=0;whiteSpace=wrap;html=1;" parent="liFUDDSbj1OE5qmoX0ny-68" vertex="1">
          <mxGeometry width="150" height="120" as="geometry" />
        </mxCell>
        <mxCell id="liFUDDSbj1OE5qmoX0ny-64" value="/ktkd_1_1/alarm_event" style="rounded=0;whiteSpace=wrap;html=1;fillColor=#ffe6cc;strokeColor=#d79b00;" parent="liFUDDSbj1OE5qmoX0ny-68" vertex="1">
          <mxGeometry x="7.5" y="35" width="135" height="30" as="geometry" />
        </mxCell>
        <mxCell id="liFUDDSbj1OE5qmoX0ny-65" value="/ktkd_1_7/alarm_event" style="rounded=0;whiteSpace=wrap;html=1;fillColor=#dae8fc;strokeColor=#6c8ebf;" parent="liFUDDSbj1OE5qmoX0ny-68" vertex="1">
          <mxGeometry x="7.5" y="80" width="135" height="30" as="geometry" />
        </mxCell>
        <mxCell id="liFUDDSbj1OE5qmoX0ny-66" value="话题" style="text;html=1;whiteSpace=wrap;strokeColor=none;fillColor=none;align=center;verticalAlign=middle;rounded=0;" parent="liFUDDSbj1OE5qmoX0ny-68" vertex="1">
          <mxGeometry width="60" height="30" as="geometry" />
        </mxCell>
        <mxCell id="liFUDDSbj1OE5qmoX0ny-69" value="" style="group;fillColor=#ffe6cc;strokeColor=#d79b00;" parent="1" vertex="1" connectable="0">
          <mxGeometry x="1191" y="310" width="150" height="120" as="geometry" />
        </mxCell>
        <mxCell id="liFUDDSbj1OE5qmoX0ny-47" value="" style="rounded=0;whiteSpace=wrap;html=1;" parent="liFUDDSbj1OE5qmoX0ny-69" vertex="1">
          <mxGeometry width="150" height="120" as="geometry" />
        </mxCell>
        <mxCell id="liFUDDSbj1OE5qmoX0ny-48" value="/ktkd_1_1/coil" style="rounded=0;whiteSpace=wrap;html=1;fillColor=#ffe6cc;strokeColor=#d79b00;" parent="liFUDDSbj1OE5qmoX0ny-69" vertex="1">
          <mxGeometry x="7.5" y="35" width="135" height="30" as="geometry" />
        </mxCell>
        <mxCell id="liFUDDSbj1OE5qmoX0ny-51" value="/ktkd_1_7/coil" style="rounded=0;whiteSpace=wrap;html=1;fillColor=#dae8fc;strokeColor=#6c8ebf;" parent="liFUDDSbj1OE5qmoX0ny-69" vertex="1">
          <mxGeometry x="7.5" y="80" width="135" height="30" as="geometry" />
        </mxCell>
        <mxCell id="liFUDDSbj1OE5qmoX0ny-52" value="话题" style="text;html=1;whiteSpace=wrap;strokeColor=none;fillColor=none;align=center;verticalAlign=middle;rounded=0;" parent="liFUDDSbj1OE5qmoX0ny-69" vertex="1">
          <mxGeometry width="60" height="30" as="geometry" />
        </mxCell>
        <mxCell id="liFUDDSbj1OE5qmoX0ny-74" style="edgeStyle=orthogonalEdgeStyle;curved=1;rounded=0;orthogonalLoop=1;jettySize=auto;html=1;exitX=1;exitY=0.5;exitDx=0;exitDy=0;" parent="1" source="liFUDDSbj1OE5qmoX0ny-20" target="liFUDDSbj1OE5qmoX0ny-23" edge="1">
          <mxGeometry relative="1" as="geometry" />
        </mxCell>
        <mxCell id="liFUDDSbj1OE5qmoX0ny-75" style="edgeStyle=orthogonalEdgeStyle;curved=1;rounded=0;orthogonalLoop=1;jettySize=auto;html=1;exitX=1;exitY=0.5;exitDx=0;exitDy=0;" parent="1" source="liFUDDSbj1OE5qmoX0ny-20" target="liFUDDSbj1OE5qmoX0ny-24" edge="1">
          <mxGeometry relative="1" as="geometry" />
        </mxCell>
        <mxCell id="liFUDDSbj1OE5qmoX0ny-76" style="edgeStyle=orthogonalEdgeStyle;curved=1;rounded=0;orthogonalLoop=1;jettySize=auto;html=1;exitX=1;exitY=0.5;exitDx=0;exitDy=0;entryX=0;entryY=0.5;entryDx=0;entryDy=0;" parent="1" source="liFUDDSbj1OE5qmoX0ny-20" target="liFUDDSbj1OE5qmoX0ny-25" edge="1">
          <mxGeometry relative="1" as="geometry" />
        </mxCell>
        <mxCell id="liFUDDSbj1OE5qmoX0ny-73" style="edgeStyle=orthogonalEdgeStyle;curved=1;rounded=0;orthogonalLoop=1;jettySize=auto;html=1;exitX=1;exitY=0.5;exitDx=0;exitDy=0;entryX=0;entryY=0.5;entryDx=0;entryDy=0;" parent="1" source="liFUDDSbj1OE5qmoX0ny-20" target="liFUDDSbj1OE5qmoX0ny-22" edge="1">
          <mxGeometry relative="1" as="geometry" />
        </mxCell>
        <mxCell id="liFUDDSbj1OE5qmoX0ny-77" style="edgeStyle=orthogonalEdgeStyle;curved=1;rounded=0;orthogonalLoop=1;jettySize=auto;html=1;exitX=1;exitY=0.5;exitDx=0;exitDy=0;entryX=0;entryY=0.5;entryDx=0;entryDy=0;" parent="1" source="liFUDDSbj1OE5qmoX0ny-22" target="liFUDDSbj1OE5qmoX0ny-18" edge="1">
          <mxGeometry relative="1" as="geometry" />
        </mxCell>
        <mxCell id="liFUDDSbj1OE5qmoX0ny-78" style="edgeStyle=orthogonalEdgeStyle;curved=1;rounded=0;orthogonalLoop=1;jettySize=auto;html=1;exitX=1;exitY=0.5;exitDx=0;exitDy=0;" parent="1" source="liFUDDSbj1OE5qmoX0ny-23" target="liFUDDSbj1OE5qmoX0ny-18" edge="1">
          <mxGeometry relative="1" as="geometry" />
        </mxCell>
        <mxCell id="liFUDDSbj1OE5qmoX0ny-80" style="edgeStyle=orthogonalEdgeStyle;curved=1;rounded=0;orthogonalLoop=1;jettySize=auto;html=1;exitX=1;exitY=0.5;exitDx=0;exitDy=0;entryX=0;entryY=0.5;entryDx=0;entryDy=0;" parent="1" source="liFUDDSbj1OE5qmoX0ny-24" target="liFUDDSbj1OE5qmoX0ny-18" edge="1">
          <mxGeometry relative="1" as="geometry" />
        </mxCell>
        <mxCell id="liFUDDSbj1OE5qmoX0ny-82" style="edgeStyle=orthogonalEdgeStyle;curved=1;rounded=0;orthogonalLoop=1;jettySize=auto;html=1;exitX=1;exitY=0.5;exitDx=0;exitDy=0;entryX=0;entryY=0.5;entryDx=0;entryDy=0;" parent="1" source="liFUDDSbj1OE5qmoX0ny-25" target="liFUDDSbj1OE5qmoX0ny-18" edge="1">
          <mxGeometry relative="1" as="geometry" />
        </mxCell>
        <mxCell id="liFUDDSbj1OE5qmoX0ny-83" style="edgeStyle=orthogonalEdgeStyle;curved=1;rounded=0;orthogonalLoop=1;jettySize=auto;html=1;exitX=1;exitY=0.5;exitDx=0;exitDy=0;entryX=0;entryY=0.5;entryDx=0;entryDy=0;" parent="1" source="liFUDDSbj1OE5qmoX0ny-18" target="liFUDDSbj1OE5qmoX0ny-28" edge="1">
          <mxGeometry relative="1" as="geometry" />
        </mxCell>
        <mxCell id="liFUDDSbj1OE5qmoX0ny-84" style="edgeStyle=orthogonalEdgeStyle;curved=1;rounded=0;orthogonalLoop=1;jettySize=auto;html=1;exitX=1;exitY=0.5;exitDx=0;exitDy=0;entryX=0;entryY=0.5;entryDx=0;entryDy=0;" parent="1" source="liFUDDSbj1OE5qmoX0ny-18" target="liFUDDSbj1OE5qmoX0ny-29" edge="1">
          <mxGeometry relative="1" as="geometry" />
        </mxCell>
        <mxCell id="liFUDDSbj1OE5qmoX0ny-85" style="edgeStyle=orthogonalEdgeStyle;curved=1;rounded=0;orthogonalLoop=1;jettySize=auto;html=1;exitX=1;exitY=0.5;exitDx=0;exitDy=0;" parent="1" source="liFUDDSbj1OE5qmoX0ny-18" target="liFUDDSbj1OE5qmoX0ny-30" edge="1">
          <mxGeometry relative="1" as="geometry" />
        </mxCell>
        <mxCell id="liFUDDSbj1OE5qmoX0ny-86" style="edgeStyle=orthogonalEdgeStyle;curved=1;rounded=0;orthogonalLoop=1;jettySize=auto;html=1;exitX=1;exitY=0.5;exitDx=0;exitDy=0;entryX=0;entryY=0.5;entryDx=0;entryDy=0;" parent="1" source="liFUDDSbj1OE5qmoX0ny-18" target="liFUDDSbj1OE5qmoX0ny-31" edge="1">
          <mxGeometry relative="1" as="geometry" />
        </mxCell>
        <mxCell id="liFUDDSbj1OE5qmoX0ny-88" style="edgeStyle=orthogonalEdgeStyle;curved=1;rounded=0;orthogonalLoop=1;jettySize=auto;html=1;exitX=1;exitY=0.5;exitDx=0;exitDy=0;entryX=0;entryY=0.5;entryDx=0;entryDy=0;" parent="1" source="liFUDDSbj1OE5qmoX0ny-27" target="liFUDDSbj1OE5qmoX0ny-19" edge="1">
          <mxGeometry relative="1" as="geometry" />
        </mxCell>
        <mxCell id="liFUDDSbj1OE5qmoX0ny-90" style="edgeStyle=orthogonalEdgeStyle;curved=1;rounded=0;orthogonalLoop=1;jettySize=auto;html=1;exitX=1;exitY=0.5;exitDx=0;exitDy=0;" parent="1" source="liFUDDSbj1OE5qmoX0ny-27" target="liFUDDSbj1OE5qmoX0ny-16" edge="1">
          <mxGeometry relative="1" as="geometry" />
        </mxCell>
        <mxCell id="liFUDDSbj1OE5qmoX0ny-91" style="edgeStyle=orthogonalEdgeStyle;curved=1;rounded=0;orthogonalLoop=1;jettySize=auto;html=1;exitX=1;exitY=0.5;exitDx=0;exitDy=0;" parent="1" source="liFUDDSbj1OE5qmoX0ny-27" target="liFUDDSbj1OE5qmoX0ny-15" edge="1">
          <mxGeometry relative="1" as="geometry" />
        </mxCell>
        <mxCell id="liFUDDSbj1OE5qmoX0ny-110" value="&lt;h1 style=&quot;margin-top: 0px;&quot;&gt;注意&lt;/h1&gt;&lt;p&gt;1、椭圆表示节点&amp;nbsp;&lt;br&gt;2、/device_config、/lane_config、/coil_config三个ros服务由mqtt_listener节点提供&lt;br&gt;3、除mqtt_listener节点之外，其他所有节点按需访问ros服务，获取必要配置，这里用部分虚线连接示意&lt;br&gt;4、ktkd_1_1和ktkd_1_7是雷视一体机设备编号，这里只用两台设备示例，实际运行以现场设备数为准&lt;br&gt;5、mqtt_publisher可以订阅所有的ros话题，按需转换成mqtt消息发送到外部，这里用部分虚线示意&lt;/p&gt;" style="text;html=1;whiteSpace=wrap;overflow=hidden;rounded=0;" parent="1" vertex="1">
          <mxGeometry x="339" y="702" width="551" height="130" as="geometry" />
        </mxCell>
        <mxCell id="liFUDDSbj1OE5qmoX0ny-123" value="" style="endArrow=classic;html=1;rounded=0;curved=1;" parent="1" edge="1">
          <mxGeometry relative="1" as="geometry">
            <mxPoint x="270" y="570" as="sourcePoint" />
            <mxPoint x="339" y="569.5" as="targetPoint" />
          </mxGeometry>
        </mxCell>
        <mxCell id="liFUDDSbj1OE5qmoX0ny-124" value="TCP" style="edgeLabel;resizable=0;html=1;;align=center;verticalAlign=middle;" parent="liFUDDSbj1OE5qmoX0ny-123" connectable="0" vertex="1">
          <mxGeometry relative="1" as="geometry">
            <mxPoint x="1" as="offset" />
          </mxGeometry>
        </mxCell>
        <mxCell id="liFUDDSbj1OE5qmoX0ny-126" value="" style="shape=flexArrow;endArrow=classic;startArrow=classic;html=1;rounded=0;curved=1;" parent="1" edge="1">
          <mxGeometry width="100" height="100" relative="1" as="geometry">
            <mxPoint x="574.5" y="228" as="sourcePoint" />
            <mxPoint x="574.5" y="158" as="targetPoint" />
          </mxGeometry>
        </mxCell>
        <mxCell id="liFUDDSbj1OE5qmoX0ny-127" value="" style="shape=flexArrow;endArrow=classic;startArrow=classic;html=1;rounded=0;curved=1;" parent="1" edge="1">
          <mxGeometry width="100" height="100" relative="1" as="geometry">
            <mxPoint x="1055.5" y="227" as="sourcePoint" />
            <mxPoint x="1055.5" y="157" as="targetPoint" />
          </mxGeometry>
        </mxCell>
        <mxCell id="liFUDDSbj1OE5qmoX0ny-128" value="Mqtt" style="text;html=1;whiteSpace=wrap;strokeColor=none;fillColor=none;align=center;verticalAlign=middle;rounded=0;" parent="1" vertex="1">
          <mxGeometry x="580" y="190" width="60" height="30" as="geometry" />
        </mxCell>
        <mxCell id="liFUDDSbj1OE5qmoX0ny-141" style="edgeStyle=orthogonalEdgeStyle;curved=1;rounded=0;orthogonalLoop=1;jettySize=auto;html=1;exitX=0.5;exitY=1;exitDx=0;exitDy=0;entryX=0.5;entryY=0;entryDx=0;entryDy=0;dashed=1;fillColor=#ffe6cc;strokeColor=#d79b00;strokeWidth=2;startArrow=block;startFill=1;" parent="1" source="liFUDDSbj1OE5qmoX0ny-40" target="liFUDDSbj1OE5qmoX0ny-20" edge="1">
          <mxGeometry relative="1" as="geometry" />
        </mxCell>
        <mxCell id="liFUDDSbj1OE5qmoX0ny-129" value="Mqtt" style="text;html=1;whiteSpace=wrap;strokeColor=none;fillColor=none;align=center;verticalAlign=middle;rounded=0;" parent="1" vertex="1">
          <mxGeometry x="1070" y="190" width="60" height="30" as="geometry" />
        </mxCell>
        <mxCell id="liFUDDSbj1OE5qmoX0ny-139" style="edgeStyle=orthogonalEdgeStyle;curved=1;rounded=0;orthogonalLoop=1;jettySize=auto;html=1;exitX=0.5;exitY=0;exitDx=0;exitDy=0;entryX=0.5;entryY=1;entryDx=0;entryDy=0;dashed=1;fillColor=#ffe6cc;strokeColor=#d79b00;strokeWidth=2;" parent="1" source="liFUDDSbj1OE5qmoX0ny-27" target="liFUDDSbj1OE5qmoX0ny-17" edge="1">
          <mxGeometry relative="1" as="geometry" />
        </mxCell>
        <mxCell id="liFUDDSbj1OE5qmoX0ny-140" style="edgeStyle=orthogonalEdgeStyle;curved=1;rounded=0;orthogonalLoop=1;jettySize=auto;html=1;exitX=0.5;exitY=0;exitDx=0;exitDy=0;entryX=0.5;entryY=1;entryDx=0;entryDy=0;dashed=1;fillColor=#ffe6cc;strokeColor=#d79b00;strokeWidth=2;" parent="1" source="liFUDDSbj1OE5qmoX0ny-54" target="liFUDDSbj1OE5qmoX0ny-17" edge="1">
          <mxGeometry relative="1" as="geometry" />
        </mxCell>
        <mxCell id="liFUDDSbj1OE5qmoX0ny-142" style="edgeStyle=orthogonalEdgeStyle;curved=1;rounded=0;orthogonalLoop=1;jettySize=auto;html=1;exitX=0.5;exitY=1;exitDx=0;exitDy=0;entryX=0.5;entryY=0;entryDx=0;entryDy=0;dashed=1;fillColor=#ffe6cc;strokeColor=#d79b00;strokeWidth=2;startArrow=block;startFill=1;" parent="1" source="liFUDDSbj1OE5qmoX0ny-40" target="liFUDDSbj1OE5qmoX0ny-18" edge="1">
          <mxGeometry relative="1" as="geometry" />
        </mxCell>
      </root>
    </mxGraphModel>
  </diagram>
</mxfile>
